<svg width="1284" height="1284" viewBox="0 0 1284 1284" fill="none" xmlns="http://www.w3.org/2000/svg">
<path d="M43.2875 2V1282M84.5781 2V1282M125.869 2V1282M167.159 2V1282M208.45 2V1282M249.741 2V1282M291.031 2V1282M332.322 2V1282M373.613 2V1282M414.903 2V1282M456.191 2V1282M497.481 2V1282M538.772 2V1282M580.063 2V1282M621.353 2V1282M662.644 2V1282M703.934 2V1282M745.225 2V1282M786.516 2V1282M827.806 2V1282M869.097 2V1282M910.384 2V1282M951.675 2V1282M992.966 2V1282M1034.26 2V1282M1075.55 2V1282M1116.84 2V1282M1158.13 2V1282M1199.42 2V1282M1240.71 2V1282M2 43.2906H1282M2 84.5813H1282M2 125.872H1282M2 167.163H1282M2 208.453H1282M2 249.744H1282M2 291.031H1282M2 332.322H1282M2 373.613H1282M2 414.903H1282M2 456.194H1282M2 497.484H1282M2 538.775H1282M2 580.066H1282M2 621.356H1282M2 662.647H1282M2 703.938H1282M2 745.225H1282M2 786.516H1282M2 827.806H1282M2 869.097H1282M2 910.388H1282M2 951.678H1282M2 992.969H1282M2 1034.26H1282M2 1075.55H1282M2 1116.84H1282M2 1158.13H1282M2 1199.42H1282M2 1240.71H1282M2 2V1282H1282V2H2Z" stroke="white" stroke-width="4"/>
</svg>
